<?xml version="1.0" standalone="no"?><!DOCTYPE svg PUBLIC "-//W3C//DTD SVG 1.1//EN" "http://www.w3.org/Graphics/SVG/1.1/DTD/svg11.dtd"><svg t="1698286232174" class="icon" viewBox="0 0 1024 1024" version="1.1" xmlns="http://www.w3.org/2000/svg" p-id="5377" width="128" height="128" xmlns:xlink="http://www.w3.org/1999/xlink"><path d="M511.744 349.7984m-64.4608 0a64.4608 64.4608 0 1 0 128.9216 0 64.4608 64.4608 0 1 0-128.9216 0Z" fill="#609f49" fill-opacity="0.6" p-id="5378"></path><path d="M783.9232 105.1136H239.616c-73.0624 0-132.5056 59.4432-132.5056 132.5056v544.3072c0 73.0624 59.4432 132.5056 132.5056 132.5056h544.3072c73.0624 0 132.5056-59.4432 132.5056-132.5056V237.6192c-0.0512-73.0624-59.4432-132.5056-132.5056-132.5056zM429.824 451.072c-29.4912-23.9104-48.4352-60.416-48.4352-101.2736 0-71.8848 58.4704-130.3552 130.3552-130.3552s130.3552 58.4704 130.3552 130.3552c0 40.8576-18.8928 77.3632-48.4352 101.2736 83.9168 32.8704 143.5136 114.5344 143.5136 209.9712 0 18.176-14.7456 32.9216-32.9216 32.9216h-385.024c-18.176 0-32.9728-14.7456-32.9728-32.9216 0.0512-95.4368 59.648-177.1008 143.5648-209.9712z m277.2992 352.512H316.416c-18.176 0-32.9728-14.7456-32.9728-32.9216s14.7456-32.9216 32.9728-32.9216h390.656c18.176 0 32.9216 14.7456 32.9216 32.9216s-14.6944 32.9216-32.8704 32.9216z" fill="#609f49" fill-opacity="0.6" p-id="5379"></path><path d="M511.744 501.504c-76.6976 0-140.9024 54.3744-156.16 126.6176h312.2688c-15.1552-72.2432-79.4112-126.6176-156.1088-126.6176z" fill="#609f49" fill-opacity="0.6" p-id="5380"></path></svg>