<?xml version="1.0" standalone="no"?><!DOCTYPE svg PUBLIC "-//W3C//DTD SVG 1.1//EN" "http://www.w3.org/Graphics/SVG/1.1/DTD/svg11.dtd"><svg t="1695715118677" class="icon" viewBox="0 0 1024 1024" version="1.1" xmlns="http://www.w3.org/2000/svg" p-id="4047" xmlns:xlink="http://www.w3.org/1999/xlink" width="16" height="16"><path d="M518.736842 26.947368a485.052632 485.052632 0 1 1 0 970.105264 485.052632 485.052632 0 0 1 0-970.105264z m213.477053 425.229474L527.090526 556.894316a10.994526 10.994526 0 0 1-10.024421 0L312.050526 452.284632l-0.215579 194.182736c0 21.557895 18.917053 39.289263 42.037895 39.289264h336.303158c23.120842 0 42.037895-17.677474 42.037895-39.343158V452.284632z m-42.037895-93.399579H353.711158c-23.013053 0-41.660632 16.491789-41.876211 36.756211l210.189474 103.370105 210.189474-103.477895c-0.269474-20.210526-19.078737-36.648421-42.037895-36.648421z" fill="#609f49" p-id="4048"></path></svg>