<?xml version="1.0" standalone="no"?><!DOCTYPE svg PUBLIC "-//W3C//DTD SVG 1.1//EN" "http://www.w3.org/Graphics/SVG/1.1/DTD/svg11.dtd"><svg t="1694422990588" class="icon" viewBox="0 0 1024 1024" version="1.1" xmlns="http://www.w3.org/2000/svg" p-id="3216" xmlns:xlink="http://www.w3.org/1999/xlink" width="64" height="64"><path d="M511.7 288.7h0.2c110.9 0 203.1 79.9 221.9 185.5-31.2 59.6-120 104.9-226.2 109-20.3 0.8-40.1 0.2-58.9-1.9-6.1-25.4-9.8-52.8-9.8-81.4 0-78.9 25.9-148.6 65.7-192.3-50.4 31.1-86.6 113.6-86.6 210.6 0 20.3 1.7 40.3 4.7 58.9-14.2-2.5-27.8-5.9-40.7-10.2-1.7-14-2.8-28.4-2.8-43 0-117.2 57.2-214.5 132.5-235.2zM434.7 627.4c-3.6-10.8-6.6-22.3-9.1-34.1-14.8-3.2-28.8-7.4-41.8-12.1 2.1 11.4 4.5 22.9 7.6 33.7 13.6 5.1 28.1 9.1 43.3 12.5z" fill="#097510" p-id="3217" data-spm-anchor-id="a313x.search_index.0.i4.6b2a3a81av5PW0" class=""></path><path d="M434.7 627.4c-3.6-10.8-6.6-22.3-9.1-34.1-14.8-3.2-28.8-7.4-41.8-12.1 2.1 11.4 4.5 22.9 7.6 33.7 13.6 5.1 28.1 9.1 43.3 12.5z" fill="#097510" p-id="3218"></path><path d="M434.7 627.4c-3.6-10.8-6.6-22.3-9.1-34.1-14.8-3.2-28.8-7.4-41.8-12.1 2.1 11.4 4.5 22.9 7.6 33.7 13.6 5.1 28.1 9.1 43.3 12.5z" fill="#097510" p-id="3219"></path><path d="M434.7 627.4c-3.6-10.8-6.6-22.3-9.1-34.1-14.8-3.2-28.8-7.4-41.8-12.1 2.1 11.4 4.5 22.9 7.6 33.7 13.6 5.1 28.1 9.1 43.3 12.5z" fill="#097510" p-id="3220"></path><path d="M434.7 627.4c-3.6-10.8-6.6-22.3-9.1-34.1-14.8-3.2-28.8-7.4-41.8-12.1 2.1 11.4 4.5 22.9 7.6 33.7 13.6 5.1 28.1 9.1 43.3 12.5z" fill="#097510" p-id="3221"></path><path d="M434.1 625.3c-2.1 0.2-4 0.4-6.1 0.6-12.7-3.2-24.8-6.8-36.5-11-3.2-10.8-5.5-22.3-7.6-33.7 12.9 4.7 26.9 8.9 41.8 12.1 2.2 11.2 5 21.8 8.4 32z" fill="#097510" p-id="3222"></path><path d="M432.8 621.5c-5.7 0.6-11.7 1.1-17.4 1.1-8.3-2.1-16.3-4.7-24-7.6-3.2-10.8-5.5-22.3-7.6-33.7 12.9 4.7 26.9 8.9 41.8 12.1 2.1 9.6 4.5 18.9 7.2 28.1z" fill="#097510" p-id="3223"></path><path d="M431.5 617.4c-9.5 1.1-19.3 1.5-29 1.3-3.8-1.3-7.4-2.3-11-3.8-3.2-10.8-5.5-22.3-7.6-33.7 12.9 4.7 26.9 8.9 41.8 12.1 1.6 8.5 3.7 16.5 5.8 24.1z" fill="#097510" p-id="3224"></path><path d="M430.5 613.6c-12.9 1.5-26.1 1.5-39.2 0.6-3-10.8-5.5-21.8-7.4-33.1 12.9 4.7 26.9 8.9 41.8 12.1 1.4 7.1 3.1 13.9 4.8 20.4z" fill="#097510" p-id="3225"></path><path d="M429.4 609.8c-12.9 1.3-26.1 1.5-39.2 0.4-2.5-9.5-4.7-19.1-6.4-29 12.9 4.7 26.9 8.9 41.8 12.1 1.3 5.7 2.6 11.2 3.8 16.5z" fill="#097510" p-id="3226"></path><path d="M428.6 606c-13.1 1.3-26.3 1.3-39.4 0.2-2.1-8.3-3.8-16.5-5.3-25 12.9 4.7 26.9 8.9 41.8 12.1 0.8 4.2 1.8 8.5 2.9 12.7z" fill="#097510" p-id="3227"></path><path d="M427.5 602c-12.9 1.3-26.3 1.3-39.4 0.2-1.5-7-3-14-4.2-21 12.9 4.7 26.9 8.9 41.8 12.1 0.5 2.9 1.2 5.9 1.8 8.7z" fill="#097510" p-id="3228"></path><path d="M426.7 598.1c-13.1 1.3-26.3 1.3-39.4 0-1.3-5.7-2.3-11.2-3.4-17 12.9 4.7 26.9 8.9 41.8 12.1 0.3 1.8 0.5 3.3 1 4.9z" fill="#097510" p-id="3229"></path><path d="M425.8 594.3c-13.1 1.1-26.3 1.1-39.4-0.2-0.8-4.5-1.7-8.7-2.5-12.9 12.9 4.7 26.9 8.9 41.8 12.1-0.1 0.4 0.1 0.6 0.1 1z" fill="#097510" p-id="3230"></path><path d="M415.9 590.9c-10.2 0.4-20.1 0.2-30.3-0.8-0.6-3-1.1-5.9-1.7-8.9 10.1 3.6 20.7 7 32 9.7z" fill="#097510" p-id="3231"></path><path d="M402.1 587.1c-5.7 0-11.4-0.4-17.2-1.1-0.4-1.7-0.6-3.4-1.1-4.9 6 2.2 11.9 4.1 18.3 6z" fill="#097510" p-id="3232"></path><path d="M387.2 582.3c-1.1 0-2.1-0.2-3.2-0.4 0-0.2 0-0.4-0.2-0.6 1.3 0.1 2.4 0.5 3.4 1zM444.1 652.2c-14.8-1.9-29.3-4.7-42.8-8.1 11.2 28.2 26.1 52.8 43.7 72.1-24.2-15-45.1-42-60.4-76.5-33.5-10.2-61.7-24.6-82-41.8 33.3 83.1 114.5 141.6 209.4 141.6 5.3 0 10.4-0.2 15.7-0.4-34.3-9.7-63.7-41.8-83.6-86.9z" fill="#097510" p-id="3233"></path><path d="M385.1 641.4c-23.7-2.5-47.7-8.3-70.4-17.8-4.7-8.3-8.7-16.7-12.3-25.6 20.3 17.2 48.5 31.6 82 41.8 0.3 0.3 0.5 1 0.7 1.6z" fill="#097510" p-id="3234"></path><path d="M372.4 635.7c-20.6-3.2-41.1-8.9-60.6-17.6-3.4-6.6-6.6-13.4-9.3-20.1 17.8 15 41.7 27.9 69.9 37.7z" fill="#097510" p-id="3235"></path><path d="M351.2 627.4c-14.4-3.6-28.4-8.5-42.2-14.8-2.3-4.9-4.5-9.8-6.6-14.6 13.2 11.2 29.7 21.1 48.8 29.4z" fill="#097510" p-id="3236"></path><path d="M330.4 617c-8.3-2.8-16.1-6.1-24.2-10-1.3-3-2.5-6.1-3.8-9.1 8.1 6.8 17.6 13.4 28 19.1z" fill="#097510" p-id="3237"></path><path d="M312 605.4c-2.8-1.3-5.3-2.5-8.1-4-0.4-1.1-1.1-2.1-1.5-3.4 3 2.5 6.2 5 9.6 7.4zM527.1 601.8c-25.9 1.1-50.4-0.2-73.8-3.4 3.8 12.1 8.1 23.5 13.1 34.6 16.7 2.1 33.9 3.4 51.7 3.4 81.4 0 153.5-24 198.4-60.6-32.2 46.6-117.2 79.9-217.3 79.9-7.2 0-14.4 0-21.4-0.4 22.3 38.6 52.8 66.3 87.5 78 98.1-24 171.3-112.1 171.9-217.7-30.9 46.7-112.8 82.3-210.1 86.2z" fill="#097510" p-id="3238"></path><path d="M546 600.7c-22.3 15-46.8 26.1-72.3 33.1-2.3-0.2-4.9-0.6-7.2-0.8-5.1-11-9.3-22.5-13.1-34.6 23.3 3.2 47.9 4.5 73.8 3.4 6.3-0.3 12.4-0.7 18.8-1.1z" fill="#097510" p-id="3239"></path><path d="M537.7 601.3c-22.3 14-46.6 24.2-71.9 30.3-4.7-10.6-8.9-21.6-12.5-33.3 23.3 3.2 47.9 4.5 73.8 3.4 3.4 0.1 7-0.2 10.6-0.4z" fill="#097510" p-id="3240"></path><path d="M529.3 601.8c-20.3 11.9-42.2 20.8-64.9 26.3-4.2-9.5-7.8-19.5-11-29.7 23.3 3.2 47.9 4.5 73.8 3.4h2.1z" fill="#097510" p-id="3241"></path><path d="M520.6 602c-18.2 10-37.7 17.6-57.9 22.3-3.4-8.3-6.6-17-9.3-25.9 21.4 2.9 43.9 4.2 67.2 3.6z" fill="#097510" p-id="3242"></path><path d="M511.9 602.2c-16.3 8.1-33.3 14.2-50.7 18.4-2.8-7.2-5.5-14.6-7.8-22.3 18.6 2.6 38.1 3.9 58.5 3.9z" fill="#097510" p-id="3243"></path><path d="M502.8 602.2c-14 6.1-28.2 11.2-43 14.6-2.1-5.9-4.5-12.1-6.4-18.4 15.9 2.1 32.2 3.4 49.4 3.8z" fill="#097510" p-id="3244"></path><path d="M493.2 601.8c-11.2 4.7-22.9 8.5-34.8 11.2-1.9-4.9-3.4-9.8-5.1-14.6 13 1.7 26.4 2.9 39.9 3.4z" fill="#097510" p-id="3245"></path><path d="M483.7 601.3c-8.7 3.2-17.6 5.9-26.7 7.8-1.3-3.6-2.3-7.2-3.6-10.8 9.9 1.3 19.9 2.4 30.3 3z" fill="#097510" p-id="3246"></path><path d="M473.5 600.5c-5.7 1.9-11.7 3.6-17.8 4.9-0.6-2.3-1.5-4.7-2.3-7 6.5 0.8 13.3 1.7 20.1 2.1z" fill="#097510" p-id="3247"></path><path d="M463.1 599.4c-3 0.8-5.7 1.7-8.7 2.3-0.2-1.3-0.6-2.3-1.1-3.4 3.3 0.5 6.6 0.9 9.8 1.1zM371.6 603.9c-3.6-0.6-7.4-1.5-11-2.3-32-16.1-57.2-37.1-72.7-61-0.8-8.7-1.5-17.6-1.5-26.5 0-97.1 61.7-180 148-211.8-44.9 35.8-76.1 113.2-76.1 203.3 0 18.7 1.5 36.9 4 54.3-20.1-8.1-37.9-18-53-29.5 12.1 16.5 31.2 30.9 55.1 42.4 1.9 10.7 4.4 21.1 7.2 31.1zM317.5 320.3l-6.1-5.7 3-3c0 1.7 0 3.2-0.4 4.5 3-0.4 4.7-0.4 5.5-0.2 0.8 0 1.7 0 2.3 0.2l-4.3 4.2z m-10.4 20.1l3.6-4 17-17.6 4.2-4-4.9-4.7-3.2 3.6c0-1.7 0-3-0.2-4.2h-2.1l-3 0.2c-0.6 0-1.3 0-2.1-0.2l3.4-3.2-5.1-4.7-2.5 3-5.5 5.7-4.5-4.2 5.7-5.9 4-3.6-5.1-4.9-3.8 4.5-16 16.6-3.8 3.6 4.9 4.7 3.6-4 5.5-5.7 4.5 4.2-4.5 4.7-3.8 3.6 4.9 4.7 3.6-4 4.5-4.5 5.9 5.7-5.9 6.1-4 3.8 4.7 4.7z m-33-19.7l30.1 28.4 5.1 5.1 5.1-5.5-0.6-0.6 26.3-27.1 0.8 0.8 5.5-5.5-5.5-4.7-30.3-28.8-4.7-4.7-4 4.5-28.4 29.3-4.5 4.5 5.1 4.3z m5.2-5.3l26.3-26.9 29.5 28-26.1 27.1-29.7-28.2zM376.6 280.2c3-4.5 5.1-8.1 6.6-10.8-0.4-0.4-0.8-0.6-1.3-1.1-2.1 3.6-4 6.4-5.7 8.9-1.9 2.5-4.7 5.7-8.7 9.8-0.6-0.8-1.5-1.3-2.1-1.7-0.6-0.6-2.1-1.3-4.2-2.5 2.1-1.5 3.8-2.8 5.1-4.2 1.5-1.3 3-3 4.9-5.3 1.7-2.3 3.4-4.7 4.9-7.2l-0.8-0.2c-2.3 2.3-3.8 4.2-5.1 5.3-1.3 1.3-3.4 3-6.1 5.5-0.6-0.6-1.3-1.1-1.9-1.5-0.6-0.6-2.1-1.5-4.7-2.8 1.7-1.1 4-2.8 6.8-4.7 3-2.1 6.1-5.5 9.5-10.4l-8.1 4.2-4.9 2.8-3-5.9 4.9-2.3 23.1-11.9 5.3-3 3 5.9-5.3 2.5-8.3 4.2c1.1 0.2 2.1 0.4 3.2 0.4-1.5 2.1-2.8 4.2-4 6.4 2.3 0.2 3.8 0.6 4.5 0.8l1.9 0.8c2.8-5.1 4.2-8.1 4.7-9.1l1.5-4c0.8 0.4 1.5 0.6 2.3 0.8 0.6 0.2 2.5 0.6 5.7 1.1-1.7 3-3.2 5.5-4.5 7.8 0.8 0.8 2.3 2.3 4.5 4 1.9 1.5 4.5 2.8 7.8 3.6 3.4 0.8 6.8 0.8 10.2 0.6-0.4 1.5-0.6 2.8-0.8 3.6-0.2 1.1-0.4 2.5-0.6 4.9-4.9-0.4-8.5-0.8-11-1.9-2.8-0.8-4.9-2.1-7-3.4-1.9-1.3-4.2-3.2-6.6-5.7l-1.5 2.1c0.6 1.1 1.3 1.9 1.7 2.5 0.4 0.8 1.3 2.1 2.5 4.5 1.1 2.1 1.9 4 2.3 5.5 0.4 1.5 0.4 3.2-0.2 4.9-0.6 1.7-3.2 3.8-7.4 6.1-1.9-2.1-3-3.4-3.6-4l-2.3-1.7c3.2-1.1 4.9-1.9 5.3-3 0.4-0.8 0.6-1.9 0-3-0.4-1.1-0.8-2.1-1.1-2.8l-0.4-0.6c-1.3 2.3-3 5.1-5.1 8.3-2.1 3.2-4.2 5.5-5.9 7.4l-5.7 6.4c-1.9-1.3-3-2.1-3.8-2.5l-3.2-1.5c5.5-4.2 9.8-8.7 12.7-12.9z m-25.4-14.2l-1.5-3-3.2-6.1-2.1-3.8 6.4-3 14.8-7.6c-1.1-0.4-2.5-0.8-4.5-1.3 0.6-0.6 1.3-1.3 1.7-1.9 0.4-0.6 1.3-2.1 2.8-4.2 3.4 0.8 6.1 1.5 7.8 1.9-0.4 0.6-0.6 1.3-0.8 1.9l15.9-8.3 5.7-3.2 1.9 4 3.2 6.1 1.7 3-7 3.6-1.5-3.2-2.1-3.8-35.8 18.4 1.9 3.8 1.7 3-7 3.7zM447 221.7l11.9-1.7 1.1 7-11.7 1.9-1.3-7.2z m-7.8-0.4l3.8 23.7 0.8 6.4 7.8-1.3-0.2-0.8 11.7-1.9 1.5 8.9c0.2 1.5 0.4 2.5 0.8 3.4 0.6 0.8 1.5 1.5 2.8 1.9 1.3 0.4 3 0.6 5.5 0.2 2.3-0.4 5.3-0.8 9.3-1.3 3.8-0.6 6.8-1.1 8.7-1.3 1.9-0.4 3.4-1.1 4.2-1.5 0.8-0.4 1.7-1.3 2.3-2.3s1.3-3.6 1.9-8.1c-2.3-0.4-5.1-1.3-8.1-2.5v2.5c0 1.7-0.2 2.8-1.1 3.6-0.6 0.6-1.5 1.3-2.8 1.5-1.3 0.4-3.4 0.6-6.4 1.1l-6.8 0.8c-1.3 0.2-2.3 0.2-2.8-0.2s-0.6-0.8-0.6-1.5l-1.1-6.4 13.4-2.1 0.2 1.1 7.6-1.1-1.1-6.1-3.8-24.2-0.6-5.5-5.1 1.1-16.1 2.3-0.6-3.4-0.4-4.9-7.8 1.3 0.8 4.9 0.4 3.4-13.6 2.1-5.9 0.6 1.4 5.6z m9.9 14.2l11.9-1.9 1.1 7-11.7 1.9-1.3-7z m17.2-16.8l13.6-2.1 1.1 7.2-13.4 2.1-1.3-7.2z m2.1 13.8l13.6-2.1 1.1 7-13.4 2.1-1.3-7zM543 222.3l1.3 2.3c0.2 0.6 1.3 3 3 7.2-1.1 2.3-2.3 4.2-3.4 5.3-1.3 1.3-2.5 2.5-4.2 3.8l3.3-18.6z m-6.1 35.4l1.3-8.3 1.5-7.4c1.3 1.9 2.1 3.2 2.5 3.8 0.4 0.8 0.8 1.5 1.1 2.3 2.8-2.5 4.5-4.5 5.3-5.3 0.6-0.8 1.5-1.7 1.9-2.3l0.4 1.7c0.2 0.4 0.2 1.3 0.4 2.8l1.7-1.3c1.1-0.6 2.8-1.3 5.3-2.3-1.1-3.2-2.1-6.1-3.2-9.1l1.1-1.9c0.2-0.6 1.1-2.3 1.9-4.7 1.7 2.8 2.5 4.5 3 5.3 0.2 0.6 0.8 2.3 1.7 4.9l-1.3 2.3c-1.1 1.7-2.3 3.4-3.8 5.1-1.5 1.5-3.4 3.2-5.9 4.9 1.9 1.3 3.2 2.5 3.8 3.2 0.6 0.6 1.1 1.3 1.7 2.1 1.5-1.1 2.5-2.1 3.4-3 0.8-0.8 2.8-3 5.5-6.1l1.1 3.6c0.2 0.2 0.4 1.5 0.6 3.2 2.5-1.7 4.9-3.2 6.8-4.2l-0.6-2.1c-0.2-0.2-1.3-3.2-3.4-8.7l1.7-3.6c0.4-1.3 1.3-3.2 2.1-5.5l1.3-3.6c0-0.4 0.2-1.1 0.4-1.9-2.3-0.6-4.9-1.3-7.4-2.3l-0.4 1.9c0 1.1-0.6 3.2-1.7 6.1-0.8-1.7-1.5-3.2-2.1-4.5l-1.7 0.8c-0.8 0.6-2.3 1.1-4.5 1.7l1.3-3.2s0.2-0.6 0.6-1.5c0.2-1.1 0.6-1.7 0.8-2.3-3-0.8-5.5-1.7-7.4-2.8l-0.4 2.5c-0.2 1.1-0.6 1.9-0.8 3-0.2 0.8-0.6 1.9-1.1 2.8-0.8-1.9-1.7-3.6-2.3-5.3-1.9 1.1-3.2 1.7-3.8 1.9-0.6 0.2-1.3 0.4-1.9 0.6l1.5-8.5 35 5.9-6.4 36.2c0 0.8-0.2 1.3-0.6 1.7-0.4 0.2-1.3 0.4-3 0-1.3-0.2-2.5-0.6-4-1.1l0.6 2.1c0.6 2.1 0.6 3.6 0.6 4.5v2.5c3.8 0.4 6.8 0.4 8.7 0.2 1.9-0.4 3.2-1.1 3.6-2.1 0.4-1.1 0.8-2.1 1.1-3.4l7-39 1.5-7.4-7.6-1.1-35.6-6.4-7.4-1.5-1.3 7.4-6.6 36.9-1.5 8.1 7.9 1.7zM623 255.2c-0.6-3.4-1.1-5.7-1.5-7l-0.8-1.9c2.8 0.4 5.9 0 9.3-0.8 3.6-0.8 7-2.1 10.2-3.6 3.2-1.5 5.9-3.2 8.3-5.3l1.5-1.3c1.7 2.5 3.4 4.9 5.3 6.8-4 2.3-7.4 4.5-10.2 5.9-2.8 1.5-6.1 3-10.6 4.2-4.3 1.3-8.2 2.3-11.5 3z m-1.1 13.1c1.3-0.2 3-0.6 5.1-1.5 2.1-0.8 4.5-1.7 6.6-2.8 2.3-1.1 4.7-2.3 7-3.8 2.1-1.5 3.6-2.5 4.2-3.2l1.3-1.1c1.5 2.8 3 5.5 4.9 8.1-1.3 0.6-2.1 1.1-2.8 1.5l-5.1 2.3c-2.3 1.1-4.7 2.1-7 3-2.5 1.1-5.3 1.9-8.9 3 7.2 3.6 14.2 7 21.2 10.4-0.2-3.4-0.4-5.5-0.6-6.6l-0.8-4c3.2 0.4 5.3 0.4 6.4 0.4l1.7-0.2c1.3 9.3 2.1 17 3 22.7-4.5 0.6-6.8 1.1-6.8 1.1l-2.5 0.4c0.2-0.8 0.2-1.7 0.2-2.5 0.2-0.6 0-2.1 0-4-3.6-1.7-8.7-4-15.5-7-6.8-2.8-10.8-4.5-12.3-5.1-1.7-0.6-3.4-1.3-5.5-1.7 0.6-3.2 0.8-5.3 0.8-6.8l-0.2-2.1c2.4-0.1 4.5-0.3 5.6-0.5z m40.1-27.7c2.1 1.7 4.7 3.2 7.4 4.5-0.6 0.6-0.8 1.3-1.3 2.1-0.4 0.6-0.6 1.3-1.1 2.3s-0.6 3-1.1 5.7c-0.4 2.5-0.2 5.1 0.6 7.4 0.8 2.3 1.5 4.2 2.1 5.3 0.6 1.3 1.3 2.3 1.9 3 0.4 0.8 1.7 2.1 3.6 3.8-0.8 0.4-1.7 0.6-2.5 1.1-0.6 0.4-2.5 1.7-5.7 3.8-2.1-3-4-6.1-5.3-9.3-1.3-3.2-1.9-6.1-2.3-8.7-0.2-2.8-0.2-5.3 0-7.6 0.4-2.3 0.8-4.5 1.1-5.9 0.4-1.6 1.3-3.9 2.6-7.5zM699.5 317.9l6.1-5.7 11.4 12.1-6.1 5.7-11.4-12.1z m33.7-2.9l-18-19.3-4.7-5.1-5.5 4.9 5.1 5.1 18.2 19.1 5.1 5.9 5.5-5.1-5.7-5.5z m-11.7-21l24.4 25.9-28 25.9c-1.1 0.8-1.7 1.3-2.1 1.3-0.4 0.2-1.1-0.4-2.1-1.3-0.2-0.2-0.8-0.8-1.5-1.7-0.6-0.8-1.5-1.7-2.1-2.3l-0.8 2.3c-0.6 1.3-1.1 2.3-1.9 3-0.4 0.8-1.1 1.7-1.7 2.3 3.6 3.4 6.4 5.5 8.1 5.9 1.7 0.6 2.8 0.8 3.6 0.6 0.6-0.2 1.7-1.1 3.2-2.3l31.2-28.8 4.9-4.2-4.9-4.9-25-26.5-5.5-5.9-5.5 4.9 5.7 5.8z m-19.9 11.8l-7.8 7.4-4.7 3.8 4.5 4.5 12.9 13.8 4.5 5.1 4.2-4.2 8.1-7.4 4.2-3.6-4.9-4.9-12.9-13.8-4-4.5-4.1 3.8zM269 409.3l1.7 1.9-1.7 3.2-13.4-2.5 0.4-4.5c3.2 0 6.1-0.6 8.5-1.9 2.5-1.1 4.2-3 5.3-5.1 0.8-1.5 1.1-3 0.8-4.2-0.4-1.5-1.1-2.5-2.3-3-2.1-1.1-5.3 1.1-9.8 6.4-0.6 0.8-1.1 1.3-1.5 1.7-3.2 3.8-6.1 5.9-8.9 6.8-2.5 0.6-5.3 0.4-8.7-1.3-4-1.9-7-4.9-8.3-8.5-1.5-3.8-1.1-7.6 0.8-11.9 1.1-1.7 2.1-3.2 3.4-4.7s2.8-2.8 4.5-3.8l-2.3-1.7 1.7-3.4 17 3-0.4 4.9c-4.5 0-8.1 0.4-11.2 1.9-3 1.5-5.1 3.4-6.4 5.9-1.1 1.7-1.3 3.6-0.8 5.3 0.4 1.7 1.5 3 2.8 3.6 2.1 1.1 5.3-0.6 9.3-5.3 0.4-0.6 0.8-0.8 1.1-1.3 2.1-2.1 3.6-3.8 4.9-5.1s2.5-1.9 3.2-2.3c1.7-0.8 3.4-1.3 5.3-1.3 1.9 0.2 3.6 0.6 5.5 1.5 3.6 1.7 6.1 4.5 7.4 7.8 1.1 3.6 0.8 7.2-1.1 10.8-0.6 1.5-1.7 3-2.8 4-1.1 1.4-2.6 2.2-4 3.1zM266 422.6l-10.2 30.9-14.2 0.2-0.4-4.2c3.6-0.4 6.4-1.3 8.3-2.3 1.9-1.3 3.2-3.2 4-5.5l0.2-0.6-23.5-7.4c-3.4-1.1-5.5-1.3-6.6-1.1-1.3 0.2-2.1 1.3-2.8 3l-5.1-1.5 5.9-18.9 5.3 1.7c-0.6 1.9-0.4 3.2 0.2 4 0.6 0.8 2.8 1.9 6.1 3l23.5 7.4v-0.6c0.8-2.3 0.8-4.7 0.2-6.8-0.8-1.9-2.5-4.2-5.3-6.8l2.5-3 11.9 8.5zM230.8 470.8l1.5-7.8 11.9 6.4-13.4 1.4z m-4.9-18.7c-0.2-0.2-0.4-0.2-0.6-0.4-3.8-2.1-5.5-4.7-5.5-7.6l-5.5-0.8-3 16.1 5.3 1.1c0.2-1.7 0.8-2.8 1.3-3.4 0.6-0.4 1.5-0.6 2.5-0.4 0.2 0 0.4 0 0.6 0.2 0.2 0 0.4 0 0.6 0.2l5.7 2.8-2.3 11.9-6.4 0.8c-0.2 0.2-0.6 0.2-0.8 0.2-0.4-0.2-0.6-0.2-1.1-0.2-0.8-0.2-1.5-0.6-1.7-1.3-0.4-0.6-0.4-1.5-0.2-3l0.2-0.4-5.3-1.1-3.6 18.9 5.3 1.1c0.8-2.1 3-3.6 6.8-4l0.2-0.2 34.3-4.7 1.7-8.9-28.5-16.9zM250.9 490l-1.5 32.6-13.6 3.8-1.5-3.8c3.4-1.5 5.7-3 7.2-4.5 1.5-1.7 2.3-3.8 2.3-6.4l0.2-0.6-24.8-1.1c-3.4-0.2-5.7 0-6.6 0.6-1.1 0.6-1.5 1.7-1.7 3.6l-5.5-0.2 0.8-19.7 5.5 0.2c0 1.9 0.4 3.2 1.3 3.8 0.8 0.8 3.2 1.1 6.6 1.3l24.8 1.3v-0.6c0.2-2.8-0.4-4.9-1.7-6.6-1.5-1.9-3.6-3.4-7-5.3l1.9-3.6 13.3 5.2zM250.1 527.6l4 32.4-12.5 6.8-2.8-3.4c3.2-2.3 5.5-5.1 6.8-7.6 1.5-2.8 1.9-5.7 1.7-8.5-0.4-1.7-0.8-3-1.5-3.4-0.8-0.6-2.3-0.6-4.7-0.4l-6.4 0.8 0.2 1.9c0.2 1.9 0.8 3.2 1.9 3.8 0.8 0.6 2.8 0.8 5.7 0.6l0.4 4L223 557.1l-0.4-4.2c2.5-0.6 4.5-1.3 5.5-2.3 1.1-0.8 1.3-2.3 1.1-3.8v-1.9l-10.4 1.3c-2.3 0.2-3.8 0.8-4.5 1.5-0.6 0.6-0.8 1.9-0.6 3.6 0.4 3 1.9 5.7 4.5 8.3 2.3 2.8 5.7 4.9 9.8 6.4l-1.9 4.2-15.9-4.2-4-33.3 5.5-0.6c0.2 1.9 0.8 3 1.7 3.6 1.1 0.4 3.4 0.4 7 0l16.7-2.1c3.6-0.4 5.7-0.8 6.6-1.7 0.8-0.6 1.3-1.9 1.1-3.6l5.3-0.7zM265.8 608.1h2.1l1.3 3.6-12.7 8.7-3.4-3.6c3-3.2 5.1-5.9 5.9-8.5 1.1-2.3 1.1-4.7 0.2-7-1.1-2.8-3.4-4.5-6.6-5.1-3.4-0.4-7.6 0.2-12.7 2.3-5.1 1.9-8.5 4-10.6 6.6-2.1 2.5-2.5 5.3-1.5 8.1 0.8 2.3 2.3 4 4.2 4.7 1.7 1.1 3.6 1.1 5.7 0.2 1.7-0.6 2.5-1.5 3-2.3 0.4-1.1 0.2-2.3-0.2-4l4.7-1.7 6.8 17-4.9 1.9c-1.1-1.7-2.1-2.5-3-2.8-1.1-0.2-2.8 0-4.9 1.1l-11 4-2.1-5.3 2.8-2.8c-1.9-1.3-3.6-2.5-4.9-4-1.3-1.5-2.3-3.4-3.2-5.5-1.9-5.1-1.5-10 1.3-14.4 2.8-4.7 7.6-8.3 14.2-10.8 6.1-2.3 11.9-2.5 17.4-0.6 5.3 2.1 9.1 5.7 11.2 11.2 0.4 1.3 0.8 2.8 1.1 4.2 0 1.4 0 2.9-0.2 4.8zM270 637.8c1.9-1.1 3.4-1.5 4.2-1.3 1.1 0.2 1.9 1.1 2.8 2.8 1.5 2.3 1.9 4.5 1.5 6.4-0.2 1.9-1.3 3.4-3.2 4.5-2.1 1.1-4 1.1-5.9 0-1.9-1.1-3.8-3.2-5.5-6.6-0.4-0.4-0.6-0.8-0.6-1.1-0.2-0.4-0.4-0.6-0.4-0.8l7.1-3.9z m-2.5-15.9c0.8 1.7 1.1 3.2 0.6 4-0.6 1.1-2.3 2.3-5.3 4.2l-15 8.1c-3.2 1.5-5.3 2.3-6.4 2.1-1.1 0-2.1-0.8-3.2-2.5l-4.7 2.5 9.5 17.4 4.7-2.5c-0.8-1.7-1.1-3-0.4-4 0.4-1.1 2.3-2.3 5.3-4l4.9-2.5 1.9 3.4-10.6 20 6.1 11 4.7-2.5c-0.6-1.3-0.8-2.5-0.8-3.6 0-1.3 0.4-2.5 1.3-4l5.7-12.3c2.3 2.3 4.9 3.6 7.2 4s4.9 0 7.6-1.5c3.6-1.9 5.5-4.5 5.9-7.8 0.4-3.4-0.6-7.4-3.2-12.3l-11-19.7-4.8 2.5zM293.3 657.1l11.9 16.1-4.5 3.4c-1.3-1.7-2.3-2.3-3.6-2.3-1.1 0-3.2 1.1-5.9 3l-13.8 10c-2.8 1.9-4.5 3.4-4.9 4.7-0.2 1.1 0 2.3 1.1 4l-4.2 3.2-12.1-16.3 4.5-3.2c1.3 1.5 2.3 2.3 3.6 2.3 1.1 0 3.2-1.1 5.9-3l13.8-10c3-2.1 4.5-3.6 4.9-4.7 0.4-1.1 0-2.5-1.1-4l4.4-3.2zM308.6 694c1.9-1.5 3.4-2.3 4.2-2.1 0.8 0 1.7 0.6 2.8 2.1 2.3 3 3.2 6.1 2.3 9.5-1.1 3.6-3.4 7-7.6 10.4-3.8 3.2-7.8 4.9-11.4 4.9-3.8 0.2-6.8-1.3-9.1-4.2-1.1-1.3-1.7-2.3-1.5-3.2 0-0.8 1.1-1.9 3-3.4l17.3-14z m-5.1-14.9c1.1 1.3 1.5 2.5 1.3 3.6-0.4 1.1-1.9 2.5-4.7 4.9l-13.4 10.6c-2.8 2.3-4.7 3.4-5.7 3.4-1.1 0.2-2.3-0.4-3.4-1.9l-4.5 3.4 12.3 15.3c4.9 5.5 9.8 8.9 15.3 9.5 5.5 0.6 11-1.3 16.5-5.7 5.5-4.5 8.5-9.3 9.1-14.8 0.4-5.3-1.7-10.8-6.4-16.5l-12.3-15-4.1 3.2zM369.6 737.2l2.3-1.7 2.5 1.9-5.7 15.9-4.2-1.3c1.1-4 1.3-7.4 0.6-10.6-0.6-3-1.7-5.3-3.8-7-2.8-1.9-5.7-2.3-9.1-1.1-3.4 1.3-6.8 4-10 8.1-3.2 4.2-4.9 8.1-5.1 11.7-0.2 3.6 1.3 6.6 4 8.7 1.9 1.5 4.5 2.3 7.4 2.3 3.2 0 6.1-0.6 9.1-2.1l2.5 4.9c-4.5 2.3-8.7 3.6-12.9 3.4-3.8-0.2-7.6-1.7-11.2-4.2-5.1-3.8-7.8-8.7-8.3-14.2-0.4-5.7 1.5-11.4 5.7-17 4-5.3 8.9-8.5 14.6-9.5 5.7-1.1 10.8 0.2 15.7 3.8 1.1 0.8 2.3 2.1 3.2 3.4 1.3 1.2 2.1 2.7 2.7 4.6zM400.8 761.2c0.4 3.6-0.6 7.8-3 12.7s-5.1 8.5-8.1 10.4c-3 1.9-5.9 2.3-8.9 0.8-3-1.3-4.7-3.8-5.1-7.4-0.2-3.4 0.8-7.6 3.2-12.7 2.3-4.9 5.1-8.3 8.1-10.4 3-1.9 5.9-2.1 8.9-0.8 3 1.4 4.7 3.7 4.9 7.4z m-19.3-13.4c-5.5 2.1-9.8 6.4-12.5 12.5-3 6.1-3.6 12.1-1.9 17.6 1.7 5.5 5.5 9.5 11.2 12.3 5.9 2.8 11.4 3 17 0.8s9.5-6.1 12.5-12.5c3-6.1 3.6-11.9 1.9-17.4-1.9-5.5-5.5-9.8-11.4-12.3-5.8-2.7-11.5-2.9-16.8-1zM430.1 773.7c0.6-2.1 1.3-3.6 2.1-4 0.8-0.4 2.1-0.4 3.8 0.2 2.5 0.6 4.7 1.9 5.7 3.4 1.1 1.7 1.3 3.4 0.6 5.5s-1.9 3.6-4 4c-2.1 0.6-4.9 0.4-8.7-0.6-0.4-0.2-0.8-0.2-1.3-0.4-0.2-0.2-0.4-0.2-0.6-0.2l2.4-7.9z m-13.2-9.6c1.9 0.6 3 1.5 3.4 2.5 0.2 1.1 0 3.2-1.1 6.6l-4.9 16.1c-1.1 3.4-1.9 5.3-3 6.1-0.8 0.6-2.1 0.8-4 0.2l-1.5 5.3 19.1 5.7 1.7-5.3c-1.9-0.6-3-1.5-3.4-2.5-0.2-1.1 0-3.2 1.1-6.6l1.5-5.3 3.8 1.3 6.8 21.8 12.3 3.4 1.5-4.9c-1.3-0.6-2.3-1.3-3.2-2.1-0.8-0.8-1.5-2.1-2.1-3.6l-4.5-12.9c3.4 0 5.9-0.6 8.1-2.1 1.9-1.3 3.4-3.4 4.2-6.4 1.1-3.8 0.6-7-1.5-9.8-1.9-2.8-5.7-4.7-10.8-6.4l-22-6.4-1.5 5.3zM474.4 783.8c0.2-2.3 0.8-3.8 1.5-4.5 0.4-0.6 1.5-0.8 3-0.6 2.3 0.2 4 1.3 5.1 2.8 1.1 1.3 1.7 3.2 1.3 5.5-0.2 2.5-1.3 4.2-3 5.5-1.7 1.1-4 1.3-7 1.1-0.6-0.2-0.8-0.2-1.3-0.2-0.2 0-0.4-0.2-0.8-0.2l1.2-9.4z m-14-7.4c1.7 0.2 2.8 0.8 3.4 1.9 0.4 0.8 0.4 3.2 0 6.8l-2.1 16.7c-0.4 3.6-1.1 5.5-1.7 6.4-0.8 0.8-2.1 1.3-3.8 1.1l-0.6 5.3 19.3 2.3 0.6-5.3c-1.7-0.2-3-0.8-3.4-1.9-0.4-0.8-0.6-3.2-0.2-6.6l0.6-4.5 7 0.8c4.7 0.4 8.5 0 11.2-1.9 2.8-1.7 4.2-4.7 4.9-8.9 0.6-4.2-0.2-7.6-2.5-10.2s-5.9-4.2-11-4.9l-21-2.5-0.7 5.4zM526.1 784.5c1.9 3.2 3.2 7.2 3.4 12.7s-0.6 9.8-2.3 12.9-4.2 4.7-7.4 4.9c-3.4 0-5.9-1.3-8.1-4.2-1.9-3-3-7.2-3.2-12.7-0.2-5.5 0.6-9.8 2.3-12.9s4.2-4.7 7.4-4.9c3.4-0.1 6 1.2 7.9 4.2z m-23.3-2.8c-3.8 4.2-5.5 10-5.3 16.7 0.2 6.8 2.3 12.3 6.6 16.3 4.2 4 9.3 5.9 15.9 5.7 6.4-0.2 11.4-2.5 15.3-6.8 3.8-4.5 5.5-10 5.3-17-0.2-6.8-2.3-12.3-6.6-16.3-4-4-9.5-5.9-15.9-5.7-6.4 0.5-11.5 2.7-15.3 7.1zM556 782.8c-0.4-2.3-0.4-3.8 0.2-4.7 0.4-0.6 1.7-1.3 3.6-1.5 2.5-0.4 4.9-0.2 6.4 0.6 1.9 1.1 3 2.5 3.2 4.7 0.4 2.1-0.2 4-1.9 5.5-1.5 1.3-4.2 2.3-7.8 3-0.6 0-1.3 0.2-1.5 0.2s-0.6 0-0.8 0.2l-1.4-8z m-15.9-3c1.9-0.2 3.2 0 4 0.8 0.8 0.8 1.5 3 1.9 6.4l3 16.5c0.4 3.6 0.6 5.7 0 6.8-0.4 1.1-1.7 1.7-3.6 2.1l1.1 5.3 19.7-3.2-1.1-5.3c-1.7 0.2-3.2-0.2-3.8-0.8-0.8-0.8-1.5-3-2.1-6.6l-0.8-5.3 3.8-0.6 15.7 16.7 12.5-2.1-0.6-5.3c-1.5 0.2-2.8 0-3.8-0.4-1.1-0.4-2.3-1.3-3.4-2.5l-10-9.3c3-1.5 5.1-3.4 6.4-5.5 1.1-2.1 1.5-4.7 1.1-7.6-0.8-3.8-2.8-6.6-5.7-8.1-3-1.5-7.2-1.9-12.5-0.8l-22.7 3.6 0.9 5.2zM609.6 780.7l-7.6 3-0.6-13.4 8.2 10.4z m-13.4 13.9v0.8c0 4.2-1.3 7.2-3.6 8.7l1.9 4.9L610 803.1l-1.9-4.9c-1.5 0.4-2.8 0.6-3.4 0.4-0.8-0.2-1.5-0.8-1.9-1.9v-0.4c-0.2-0.2-0.2-0.4-0.2-0.6l-0.6-6.4 11.4-4.5 4 5.1c0.2 0 0.4 0.4 0.6 0.6 0.2 0.2 0.2 0.6 0.4 1.1 0.2 0.8 0.2 1.5-0.2 1.9-0.2 0.6-1.3 1.3-2.3 1.7l-0.6 0.2 1.9 4.9 18.2-6.8-2.1-5.1c-2.1 0.4-4.5-0.6-7-3.6h-0.2l-22.3-26.3-8.5 3.2 0.9 32.9zM617 754.4l29.3-15 10.2 9.8-2.5 3.2c-3-2.3-5.5-3.6-7.6-4-2.1-0.4-4.5 0-6.8 1.3l-0.4 0.2 11.4 21.6c1.7 3 3 4.9 4 5.3 1.1 0.6 2.3 0.4 4-0.4l2.5 4.9-17.6 9.1-2.5-4.7c1.7-1.1 2.5-1.9 2.5-3.2 0.2-1.1-0.4-3.2-2.1-6.1L630 754.8l-0.6 0.2c-2.3 1.3-4 2.8-4.9 4.9-0.8 1.9-1.1 4.9-0.8 8.5l-4.2 0.4-2.5-14.4zM651.1 736.1l16.5-11.2 3.2 4.5c-1.7 1.1-2.3 2.1-2.3 3.4 0 1.1 0.8 3.2 2.8 5.9l9.8 13.8c1.9 3 3.4 4.5 4.7 4.9 1.1 0.4 2.3 0.2 4-0.8l3.2 4.5-16.7 11.4-3.2-4.5c1.7-1.3 2.3-2.3 2.5-3.6 0-1.1-1.1-3.2-3-5.9l-9.8-14c-1.9-2.8-3.4-4.2-4.7-4.7-1.1-0.4-2.3 0-4 0.8l-3-4.5zM697.1 713.9c3.4 1.3 6.8 4.2 10.2 8.7 3.2 4.2 5.1 8.3 5.3 11.9 0.4 3.4-0.6 6.1-3.4 8.1-2.5 2.1-5.5 2.3-8.9 0.8-3.2-1.3-6.6-4-10-8.5-3.2-4.5-5.1-8.5-5.5-11.9-0.2-3.6 0.8-6.4 3.4-8.3 2.8-1.9 5.8-2.3 8.9-0.8z m-20.7 10.8c-0.6 5.7 1.1 11.2 5.1 16.7 4.2 5.5 9.1 8.7 14.8 9.8 5.7 1.1 11.2-0.4 16.3-4 5.3-3.8 8.1-8.7 8.7-14.4 0.6-5.7-1.1-11.2-5.3-16.7-4-5.5-8.9-8.9-14.6-9.8-5.7-1.1-11.2 0.2-16.3 4-5.3 3.8-8.1 8.7-8.7 14.4zM756.9 633.1c3.6-0.4 7.8 0.4 12.9 3 4.9 2.3 8.5 4.9 10.4 7.6 2.1 3.2 2.3 5.9 0.8 8.9-1.5 3-3.8 4.7-7.4 5.1-3.6 0.2-7.8-0.6-12.9-3-4.9-2.3-8.5-5.1-10.4-8.1-2.1-3-2.3-5.7-0.8-8.7 1.3-2.9 3.8-4.6 7.4-4.8z m-13.3 19.1c2.1 5.3 6.4 9.5 12.5 12.5 6.4 2.8 12.1 3.4 17.6 1.7 5.7-1.7 10-5.5 12.5-11.2 2.8-5.7 3.2-11.4 0.8-16.7-2.1-5.3-6.1-9.5-12.5-12.5-6.4-2.8-12.1-3.4-17.8-1.7-5.5 1.9-9.5 5.7-12.3 11.4s-3 11.2-0.8 16.5zM754.6 615.3l11-31.4 13.8-1.3 0.8 3.8c-3.6 1.1-6.6 2.3-8.9 4.2-2.3 1.9-4 4.2-5.1 7-0.6 1.9-0.6 3.4-0.2 4.2 0.4 0.8 1.7 1.7 4 2.3l5.7 2.1 0.6-1.7c0.6-2.3 0.8-3.8 0.2-4.9-0.6-1.3-2.3-2.3-4.9-3.2l1.3-3.6 19.5 6.8-1.3 3.4c-2.5-0.4-4.5-0.4-5.9 0s-2.5 1.7-3 3.4l-0.6 1.7 7 2.3c3.2 1.3 5.5 1.7 6.6 1.3 1.1-0.4 1.9-1.5 2.5-3.2l5.3 1.7-6.6 19.1-5.3-1.7c0.6-1.9 0.6-3.2 0-4.2-0.6-0.8-2.8-1.9-5.9-3L769 615.1c-3.2-1.3-5.3-1.7-6.4-1.3-1.1 0.4-2.1 1.5-3 3.2l-5-1.7zM776.4 536.5l-2.8-1.1 0.4-3.2 17-3 0.8 4.5c-3.8 0.8-7 2.3-9.5 4.5-2.5 2.1-3.8 4.2-4.2 6.8-0.4 3.2 0.8 6.1 3.6 8.5 2.8 2.3 6.8 3.8 11.9 4.5 5.3 0.6 9.5 0.2 12.9-1.3 3.2-1.7 5.1-4.2 5.5-7.8 0.4-2.3-0.2-4.9-1.7-7.6-1.5-2.5-3.6-4.9-6.4-6.8l3.2-4.5c4.2 2.8 7.4 5.9 9.1 9.3 1.9 3.6 2.5 7.4 1.9 11.9-0.8 6.1-3.6 11-8.3 14.2-4.9 3.2-10.6 4.2-17.8 3.4-6.6-0.8-11.9-3.6-15.5-7.8-3.8-4.5-5.3-9.5-4.5-15.5 0.2-1.5 0.6-3 1.3-4.5 1-1.6 1.8-3.1 3.1-4.5zM774.1 528l-0.8-19.5 5.1-0.2c0.2 1.7 0.8 3 1.7 3.6 1.1 0.6 3.4 0.8 6.8 0.6l4.5-0.2-0.6-14.8-4.5 0.2c-3.6 0-5.7 0.4-6.6 1.3-1.1 0.6-1.5 1.9-1.5 3.6l-5.1 0.4-0.8-19.7 5.3-0.2c0.2 1.7 0.8 3 1.7 3.6 0.8 0.6 3.2 0.8 6.8 0.6l17-0.6c3.6-0.2 5.7-0.6 6.8-1.3 0.8-0.6 1.3-1.9 1.3-3.8l5.3-0.2 0.8 19.7-5.1 0.2c-0.2-1.9-0.6-3-1.7-3.6-1.1-0.6-3.2-0.8-6.8-0.6l-7.4 0.2 0.6 14.8 7.4-0.2c3.6-0.2 5.7-0.6 6.6-1.3 1.1-0.6 1.5-1.9 1.3-3.8l5.3-0.2 0.8 19.7-5.3 0.2c-0.2-1.9-0.8-3-1.7-3.6-1.1-0.6-3.2-0.8-6.8-0.8l-17 0.8c-3.6 0-5.7 0.4-6.6 1.3-1.1 0.6-1.5 1.9-1.5 3.6l-5.3 0.2zM772 480.9s-0.8-4-1.9-10.6c-1.1-6.8-1.7-9.1-1.7-9.1l5.3-0.8c0.6 1.9 1.3 3 2.3 3.6 1.1 0.4 3.2 0.4 6.6-0.2l17-3c3.4-0.6 5.5-1.5 6.1-2.3 0.8-0.6 1.3-2.1 1.1-4l5.3-0.8 3.6 19.7-5.5 0.8c-0.4-1.9-1.1-3-2.1-3.4-1.1-0.6-3.4-0.4-6.8 0l-16.7 3c-3.4 0.6-5.5 1.5-6.4 2.3-0.8 0.6-1.1 2.1-0.8 4l-5.4 0.8zM768.2 459.1l-4.5-16.1 20.6-20.1-11.4 3.2c-3.4 1.1-5.5 1.9-6.1 2.8-0.6 0.8-0.8 2.1-0.4 3.8l-5.1 1.5-4-14 5.3-1.7c0.4 1.9 1.3 3 2.3 3.4 1.1 0.2 3.4 0 6.8-1.1l29.5-8.1 1.9 6.8-27.6 27.1 19.7-5.5c3.4-0.8 5.5-1.9 6.1-2.8 0.6-0.8 0.8-2.1 0.4-4l5.1-1.3 4 14.2-5.1 1.3c-0.6-1.7-1.5-2.8-2.5-3-1.1-0.4-3.2-0.2-6.8 0.8l-16.3 4.5c-3.4 1.1-5.3 1.9-6.1 2.8-0.6 0.8-0.8 2.1-0.4 4l-5.4 1.5zM770.3 394.9l3.4 7.2-13.4 1.5 10-8.7z m15 12.5s0.4 0 0.6-0.2c4.5-0.2 7.4 0.8 8.9 3.2l5.1-2.3-7-15-4.9 2.3c0.8 1.5 1.1 2.5 0.8 3.4s-0.8 1.3-1.9 1.9c0 0-0.2 0-0.6 0.2 0 0-0.4 0-0.4 0.2l-6.4 0.8-5.1-11 4.7-4.5c0.2 0 0.6-0.2 0.8-0.4 0.2-0.2 0.4-0.4 0.8-0.6 0.8-0.2 1.5-0.2 2.3 0 0.4 0.4 1.1 1.3 1.7 2.5v0.4l5.1-2.1-8.1-17.6-5.1 2.3c0.6 2.1-0.2 4.5-3 7.2h-0.2l-25.2 23.5 3.6 8.1 33.5-2.3zM699.9 698.4l10.8-12.7 28.4 5.5-9.1-7.6c-2.8-2.1-4.5-3.4-5.7-3.4-1.1-0.2-2.3 0.4-3.4 1.7l-4.2-3.4 9.5-11.2 4.2 3.6c-1.3 1.3-1.5 2.5-1.3 3.8 0.2 1.1 1.7 2.5 4.5 4.9l23.5 19.5-4.7 5.5-38.2-7.4 15.7 13.1c2.8 2.1 4.7 3.4 5.7 3.6 1.1 0 2.3-0.6 3.6-1.9l4 3.4-9.5 11.2-4.2-3.4c1.1-1.5 1.7-2.8 1.3-3.8-0.2-1.3-1.9-2.8-4.5-5.1l-13.1-10.8c-2.5-2.1-4.5-3.4-5.7-3.4-1.1-0.2-2.3 0.4-3.4 1.9l-4.2-3.6z" fill="#097510" p-id="3248"></path><path d="M267.5 514.2c0 134.6 109.6 244.4 244.4 244.4s244.4-109.8 244.4-244.4c0-134.8-109.6-244.6-244.4-244.6S267.5 379.4 267.5 514.2z m5.1 0c0-132.1 107.3-239.5 239.3-239.5s239.3 107.5 239.3 239.5c0 131.8-107.3 239.3-239.3 239.3S272.6 646.1 272.6 514.2z" fill="#097510" p-id="3249"></path></svg>