<?xml version="1.0" standalone="no"?><!DOCTYPE svg PUBLIC "-//W3C//DTD SVG 1.1//EN" "http://www.w3.org/Graphics/SVG/1.1/DTD/svg11.dtd"><svg t="1695601952948" class="icon" viewBox="0 0 1024 1024" version="1.1" xmlns="http://www.w3.org/2000/svg" p-id="3876" id="mx_n_1695601952949" xmlns:xlink="http://www.w3.org/1999/xlink" width="32" height="32"><path d="M694.619136 720.534528 297.4208 720.534528c-11.367424 0-20.104192 9.17504-20.104192 20.641792 0 11.360256 8.737792 20.100096 20.104192 20.100096l397.198336 0c11.134976 0 20.527104-8.73984 20.527104-20.100096C715.14624 729.709568 705.754112 720.534528 694.619136 720.534528L694.619136 720.534528zM297.4208 309.459968 297.4208 309.459968l58.983424 0 0 58.662912c0 11.584512 9.174016 20.324352 20.322304 20.324352 11.802624 0 20.758528-8.73984 20.758528-20.324352l0-58.662912 58.548224 0c11.367424 0 20.54144-9.500672 20.54144-20.642816 0-11.359232-9.174016-20.649984-20.54144-20.649984l-58.548224 0 0-58.655744c0-11.149312-8.955904-20.542464-20.758528-20.542464-11.148288 0-20.322304 9.393152-20.322304 20.542464l0 58.655744L297.4208 268.167168c-11.367424 0-20.104192 9.289728-20.104192 20.649984C277.316608 299.959296 286.0544 309.459968 297.4208 309.459968L297.4208 309.459968zM277.316608 452.675584 277.316608 452.675584c0 11.359232 8.737792 20.534272 20.104192 20.534272l397.198336 0c11.134976 0 20.527104-9.17504 20.527104-20.534272 0-11.467776-9.392128-20.651008-20.527104-20.651008L297.4208 432.024576C286.0544 432.0256 277.316608 441.207808 277.316608 452.675584L277.316608 452.675584zM874.42432 338.958336 874.42432 338.958336 627.972096 92.184576c-6.331392-6.227968-15.28832-10.162176-24.2432-10.162176L198.88128 82.0224c-24.69376 0-48.065536 10.162176-64.454656 26.980352-16.825344 16.498688-26.871808 39.43424-26.871808 64.672768L107.554816 878.60224c0 25.12896 10.046464 47.956992 26.871808 64.454656l0 0 0 0c16.82432 16.490496 39.760896 26.870784 64.454656 26.870784l594.045952 0c25.12896 0 47.4112-9.93792 63.802368-25.890816l0.8704-0.979968c16.608256-16.497664 27.088896-39.325696 27.088896-64.454656L884.688896 363.208704C884.687872 354.468864 881.188864 345.730048 874.42432 338.958336L874.42432 338.958336zM623.818752 185.034752 623.818752 185.034752l157.755392 157.856768L660.969472 342.89152c-10.262528 0-19.670016-4.370432-26.43456-10.70592l-0.871424-1.424384c-5.691392-6.335488-9.843712-15.075328-9.843712-24.793088L623.819776 185.034752 623.818752 185.034752zM816.313344 878.60224 816.313344 878.60224c0 6.228992-2.192384 12.019712-6.779904 16.171008l0 0.217088c-4.368384 3.929088-10.261504 6.337536-16.606208 6.337536L198.88128 901.327872c-6.111232 0-12.238848-2.409472-16.171008-6.554624l0 0c-4.153344-4.151296-6.765568-9.942016-6.765568-16.171008L175.944704 173.67552c0-6.5536 2.612224-12.12928 6.765568-16.497664 3.93216-3.818496 10.059776-6.772736 16.171008-6.772736l383.869952 0 0 155.563008c0 20.860928 8.303616 39.76192 21.84704 53.633024l1.089536 1.204224c14.429184 14.30528 33.867776 22.718464 55.28064 22.718464l155.343872 0L816.31232 878.60224 816.313344 878.60224zM694.619136 576.556032 694.619136 576.556032 297.4208 576.556032c-11.367424 0-20.104192 8.956928-20.104192 20.317184 0 11.467776 8.737792 20.424704 20.104192 20.424704l397.198336 0c11.134976 0 20.527104-8.956928 20.527104-20.424704C715.14624 585.51296 705.754112 576.556032 694.619136 576.556032L694.619136 576.556032z" fill="#609f49" p-id="3877"></path></svg>