<?xml version="1.0" standalone="no"?><!DOCTYPE svg PUBLIC "-//W3C//DTD SVG 1.1//EN" "http://www.w3.org/Graphics/SVG/1.1/DTD/svg11.dtd"><svg t="1695602150806" class="icon" viewBox="0 0 1024 1024" version="1.1" xmlns="http://www.w3.org/2000/svg" p-id="11500" xmlns:xlink="http://www.w3.org/1999/xlink" width="32" height="32"><path d="M857.649549 507.637207a63.157707 63.157707 0 0 1 18.18211-2.672496 62.655186 62.655186 0 0 1 60.462369 46.483159 61.855722 61.855722 0 0 1-8.885478 51.416997c42.737096 66.218514 52.581932 123.277448 28.392415 165.283605-21.996699 38.237252-69.964577 58.452286-138.741378 58.452286-22.293643 0-46.734419-2.124292-72.637074-6.281507a694.346464 694.346464 0 0 1-61.764354-13.065537 691.011555 691.011555 0 0 1-19.529779 59.914165c-38.648405 101.235066-92.326745 156.969172-151.144501 156.969172-58.909123 0-112.54178-55.734107-151.030293-156.969172a687.402543 687.402543 0 0 1-19.575463-59.982691c-49.84091 12.882802-95.044925 19.41557-134.447111 19.41557-2.923756 0-5.68762 0-8.565692-0.114209-64.025697-1.644613-109.092661-21.859648-130.175686-58.429444-23.824046-41.275217-14.687308-97.283426 26.428017-162.245639a61.855722 61.855722 0 0 1-14.207629-39.630605 62.655186 62.655186 0 0 1 87.07312-57.561454C130.59356 470.633415 101.721465 433.081419 82.625681 397.996342c-30.653759-56.236627-35.678965-105.346598-14.550257-141.984921 22.179433-38.328619 70.215838-58.566496 138.969797-58.566496 22.202275 0 46.62021 2.124292 72.614232 6.30435 17.953692 2.923756 36.546955 6.784029 55.665581 11.557975a62.312559 62.312559 0 0 1-19.849565-45.638011 62.678028 62.678028 0 0 1 67.566183-62.358242c36.021593-70.215838 80.586036-107.288155 129.056436-107.288155 58.909123 0 112.54178 55.756948 151.030292 156.969172 7.080973 18.638947 13.659424 38.739772 19.552621 59.914165 21.288601-5.482043 42.028998-9.867678 61.741512-13.042695a459.212492 459.212492 0 0 1 72.637074-6.327191c68.731118 0 116.790364 20.260718 138.946955 58.589337 29.443141 50.891635 7.948963 125.173321-60.553736 209.094267a689.366942 689.366942 0 0 1-37.803257 42.41731z m29.717243 39.859023a22.75048 22.75048 0 0 0-11.420924-3.129333 20.671872 20.671872 0 0 0-5.847513 0.799465l-0.205576 0.045684a23.253 23.253 0 0 0-14.002052 10.712826 23.115949 23.115949 0 0 0 8.428641 31.430381 23.412893 23.412893 0 0 0 17.474013 2.284185c5.824671-1.530404 10.804194-5.344992 14.024894-10.75851a23.070265 23.070265 0 0 0-8.451483-31.384698z m-136.754138 233.763462c23.801205 3.860272 46.049164 5.801829 66.127147 5.801829 53.17582 0 90.385188-13.796476 104.821236-38.808298 15.8294-27.341691 6.669819-70.330047-25.811287-121.495784a62.518135 62.518135 0 0 1-20.0323 3.33491c-10.918403 0-21.745438-2.923756-31.270489-8.451484a62.495293 62.495293 0 0 1-27.935579-74.32737 1080.259469 1080.259469 0 0 1-102.4 81.362659 1069.866429 1069.866429 0 0 1-21.76828 140.271783c20.100825 5.185099 39.676288 9.319474 58.269552 12.311755z m-79.261209-123.825652a1278.618068 1278.618068 0 0 1-55.711265 33.942984c-14.527415 8.382958-29.374615 16.583181-44.267499 24.417935 0.571046 3.449119 0.86799 6.898238 0.86799 10.347356l-0.022842 2.169976c27.844211 11.466607 55.368637 21.471336 82.047914 29.785768 7.17234-31.727325 12.882802-65.487575 17.085702-100.664019z m-273.302699 195.52621c15.875084 41.732054 34.948026 75.766406 55.16306 98.471202 19.232835 21.585545 39.607763 33.006469 58.886282 33.006469 19.301361 0 39.676288-11.420923 58.909123-32.983627 20.215035-22.681954 39.287977-56.739148 55.163061-98.471202 6.646977-17.451171 12.814276-36.432746 18.410528-56.533572a1012.738969 1012.738969 0 0 1-86.182288-31.087753 62.586661 62.586661 0 0 1-96.255544 1.461878c-18.753156 7.606335-37.437787 14.641624-55.642739 20.854606l-0.296944 0.091368a19.209993 19.209993 0 0 1-1.461878 0.388311c-8.245907 2.809547-16.674548 5.550569-25.194557 8.154539 5.596253 20.0323 11.786393 39.059558 18.501896 56.647781z m134.67553-126.817935a23.070265 23.070265 0 1 0-46.140531 0.068526 23.070265 23.070265 0 0 0 46.140531-0.068526z m-162.816686 31.77301c7.948963-2.489761 15.920767-5.093732 23.801205-7.811912a25.582869 25.582869 0 0 1 2.10145-0.548204 1019.819942 1019.819942 0 0 0 51.348472-19.369887 59.754272 59.754272 0 0 1 1.164934-16.720232 1334.603435 1334.603435 0 0 1-95.47892-55.962525c4.2029 35.085077 9.913362 68.731118 17.062859 100.41276z m-21.973856-151.144502a1256.278742 1256.278742 0 0 0 120.330849 72.500022 62.44961 62.44961 0 0 1 84.514834 1.621772 1318.888244 1318.888244 0 0 0 43.148249-23.801205 1263.953602 1263.953602 0 0 0 80.334776-50.343431 1272.290877 1272.290877 0 0 0 2.96944-132.299977 62.815079 62.815079 0 0 1-47.008521-60.553737c0-7.697702 1.439036-15.326879 4.2029-22.453535A1277.567343 1277.567343 0 0 0 512.052404 322.709614a1275.488735 1275.488735 0 0 0-120.924738 66.606826 62.70087 62.70087 0 0 1-45.88927 77.479545 1273.844122 1273.844122 0 0 0 2.695338 139.974838z m5.916038-200.825519c0-12.722909-10.347357-23.093107-23.070266-23.093107a23.093107 23.093107 0 1 0 23.070266 23.093107z m-210.830248 137.188133a23.093107 23.093107 0 0 0-17.19991 38.442829 19.803881 19.803881 0 0 1 11.146821 6.852554 23.115949 23.115949 0 0 0 29.146197-22.247959c0-12.722909-10.370199-23.047424-23.093108-23.047424z m0 85.611243c-5.093732 0-10.096096-0.61673-14.984251-1.827348-32.298372 51.028686-41.412269 93.971358-25.628553 121.335891 14.664466 25.331608 50.800268 38.716931 104.50145 38.716931 36.204327 0 78.1648-6.098773 124.78501-18.159268a1063.859023 1063.859023 0 0 1-21.745438-140.203257 1109.08588 1109.08588 0 0 1-89.54004-70.010261 964.839616 964.839616 0 0 1-20.397769-18.273478c3.609012 7.880437 5.619094 16.628865 5.619094 25.856971a62.655186 62.655186 0 0 1-62.609503 62.563819z m130.358421-385.958688a420.061566 420.061566 0 0 0-66.172831-5.80183c-53.152978 0-90.362347 13.773634-104.798394 38.716931-14.070578 24.326567-8.588534 60.576578 15.852242 104.775552 25.491501 46.094847 69.781843 97.351952 128.11992 148.197903a18.570422 18.570422 0 0 1 1.187776 1.142093 1049.582869 1049.582869 0 0 0 58.817756 47.282623 1309.43172 1309.43172 0 0 1-0.685256-113.866607 63.408967 63.408967 0 0 1-11.695025-6.738345 1002.048985 1002.048985 0 0 0-47.648093 38.899665 19.712514 19.712514 0 0 1-27.935579-1.98724 19.643988 19.643988 0 0 1 2.032925-27.889896 1049.445818 1049.445818 0 0 1 50.45764-41.275217 61.764354 61.764354 0 0 1-2.741022-18.29632c0-28.803569 19.986616-53.838233 47.465358-60.690787 2.855231-21.128708 6.30435-42.028998 10.255989-62.244033a19.918091 19.918091 0 0 1 23.115949-15.669507 19.963774 19.963774 0 0 1 15.760875 23.093107 1025.142092 1025.142092 0 0 0-9.547892 57.926924c4.910997 2.10145 9.52505 4.842472 13.773633 8.086014a1314.319875 1314.319875 0 0 1 96.735222-54.820433c-68.182913-29.214722-134.378586-49.498282-192.351193-58.840597z m104.707027-96.164176a23.070265 23.070265 0 1 0 0 46.140531 23.070265 23.070265 0 0 0 0-46.140531z m248.0853 24.349409c-15.897925-41.709213-34.970868-75.743565-55.185903-98.448361-19.232835-21.585545-39.584921-33.006469-58.886281-33.006469-31.727325 0-64.459692 29.511666-92.578006 83.327058a62.472451 62.472451 0 0 1-29.351773 108.201829 1086.129824 1086.129824 0 0 1 121.906937 47.990721 1069.523801 1069.523801 0 0 1 132.57408-51.348472 651.152532 651.152532 0 0 0-18.479054-56.716306z m28.118313 95.067767c-31.133437 9.684943-63.271916 21.608387-95.890073 35.587597a1309.774348 1309.774348 0 0 1 103.473566 59.137542c2.649654-1.667455 5.390676-3.106491 8.223065-4.317109a982.930359 982.930359 0 0 0-15.806558-90.40803z m17.451171 147.855275a23.093107 23.093107 0 0 0 46.186215 0 23.093107 23.093107 0 0 0-46.186215 0z m249.93549-138.101807c-14.436047-24.943297-51.668258-38.671247-104.86692-38.671247-20.123667 0-42.394468 1.941557-66.195672 5.778988-18.570422 3.015124-38.145884 7.126656-58.269552 12.311755 7.080973 30.996386 12.837118 63.865804 17.177069 97.877315a62.655186 62.655186 0 0 1 47.922195 60.804996c0 4.271425-1.027883 8.314432-1.895873 12.403123a1039.395405 1039.395405 0 0 1 50.526165 41.435111 19.643988 19.643988 0 0 1 1.781664 27.889895 19.66683 19.66683 0 0 1-27.912737 1.73598 1001.546464 1001.546464 0 0 0-44.267499-36.432746 61.718671 61.718671 0 0 1-16.994334 10.781352 1334.055231 1334.055231 0 0 1-0.9822 105.506491c59.320277-44.336025 109.93781-91.458755 147.078653-137.051082 28.255365-34.559714 48.219139-68.091546 57.767031-96.917956 9.091055-27.433058 8.794111-50.754584-0.86799-67.451975z" fill="#609f49" p-id="11501"></path></svg>