<?xml version="1.0" standalone="no"?><!DOCTYPE svg PUBLIC "-//W3C//DTD SVG 1.1//EN" "http://www.w3.org/Graphics/SVG/1.1/DTD/svg11.dtd"><svg t="1695602176725" class="icon" viewBox="0 0 1024 1024" version="1.1" xmlns="http://www.w3.org/2000/svg" p-id="12550" xmlns:xlink="http://www.w3.org/1999/xlink" width="32" height="32"><path d="M512.176662 1023.997953A512.053838 512.053838 0 0 1 40.122552 313.255599a511.767248 511.767248 0 0 1 833.975908-162.946692 518.522576 518.522576 0 0 1 110.132312 162.946692 509.679238 509.679238 0 0 1 39.303725 168.678485 28.699907 28.699907 0 0 1-57.317932 3.27531 447.284575 447.284575 0 0 0-34.800173-149.84545 455.882265 455.882265 0 0 0-97.849898-144.523071 454.449316 454.449316 0 1 0-144.523071 740.220148 440.160775 440.160775 0 0 0 98.668726-57.317932 28.658966 28.658966 0 0 0 2.865896-42.988449l-278.810797-277.991969a27.717314 27.717314 0 0 1 0-40.122553 28.167669 28.167669 0 0 1 40.531966 0l321.799246 320.980419a28.167669 28.167669 0 0 1 0 40.531966A508.696645 508.696645 0 0 1 512.176662 1023.997953z m-0.818828-295.596763a28.290493 28.290493 0 0 1-31.934276 28.249552 246.098634 246.098634 0 1 1 276.763728-276.354314 28.945556 28.945556 0 0 1-28.658966 32.34369 28.658966 28.658966 0 0 1-28.249552-24.974241 189.353882 189.353882 0 1 0-212.485761 212.485761 28.658966 28.658966 0 0 1 24.564827 28.249552z" fill="#609f49" p-id="12551"></path></svg>