<?xml version="1.0" standalone="no"?><!DOCTYPE svg PUBLIC "-//W3C//DTD SVG 1.1//EN" "http://www.w3.org/Graphics/SVG/1.1/DTD/svg11.dtd"><svg t="1695602039810" class="icon" viewBox="0 0 1024 1024" version="1.1" xmlns="http://www.w3.org/2000/svg" p-id="8155" xmlns:xlink="http://www.w3.org/1999/xlink" width="32" height="32"><path d="M659.911111 329.955556L553.718519 75.851852c-15.17037-36.02963-66.37037-36.02963-81.540741 0l-106.192593 256c-5.688889 15.17037-20.859259 26.548148-37.925926 26.548148L53.096296 379.259259c-39.822222 3.792593-54.992593 51.2-24.651852 77.748148l210.488889 180.148149c13.274074 11.377778 17.066667 28.444444 13.274074 43.614814L187.733333 950.044444c-9.481481 37.925926 32.237037 68.266667 66.370371 47.407408L491.140741 853.333333c13.274074-9.481481 32.237037-9.481481 45.511111 0l237.037037 144.118519c34.133333 20.859259 73.955556-9.481481 66.37037-47.407408l-64.474074-269.274074c-3.792593-15.17037 1.896296-32.237037 13.274074-43.614814l210.488889-180.148149c30.340741-24.651852 13.274074-73.955556-24.651852-77.748148l-276.859259-22.755555c-17.066667 0-30.340741-9.481481-37.925926-26.548148z" fill="#609f49" p-id="8156"></path></svg>