<?xml version="1.0" standalone="no"?><!DOCTYPE svg PUBLIC "-//W3C//DTD SVG 1.1//EN" "http://www.w3.org/Graphics/SVG/1.1/DTD/svg11.dtd"><svg t="1695602128600" class="icon" viewBox="0 0 1024 1024" version="1.1" xmlns="http://www.w3.org/2000/svg" p-id="10299" xmlns:xlink="http://www.w3.org/1999/xlink" width="32" height="32"><path d="M522.782118 945.935059H157.424941c-16.63498 0-30.117647-13.482667-30.117647-30.117647V108.92549c0-16.63498 13.482667-30.117647 30.117647-30.117647H866.585098c16.63498 0 30.117647 13.482667 30.117647 30.117647v345.288785c0 16.63498-13.482667 30.117647-30.117647 30.117647s-30.117647-13.482667-30.117647-30.117647V139.043137H187.542588v746.656628h335.23953c16.63498 0 30.117647 13.482667 30.117647 30.117647s-13.482667 30.117647-30.117647 30.117647z" p-id="10300" fill="#609f49"></path><path d="M577.887373 342.136471h-277.584314c-16.63498 0-30.117647-13.482667-30.117647-30.117647s13.482667-30.117647 30.117647-30.117648h277.594353c16.63498 0 30.117647 13.482667 30.117647 30.117648s-13.492706 30.117647-30.127686 30.117647zM465.016471 467.154824H300.303059c-16.63498 0-30.117647-13.482667-30.117647-30.117648s13.482667-30.117647 30.117647-30.117647H465.016471c16.63498 0 30.117647 13.482667 30.117647 30.117647s-13.482667 30.117647-30.117647 30.117648zM450.027922 592.173176H300.303059c-16.63498 0-30.117647-13.482667-30.117647-30.117647s13.482667-30.117647 30.117647-30.117647h149.734902c16.63498 0 30.117647 13.482667 30.117647 30.117647s-13.492706 30.117647-30.127686 30.117647z" p-id="10301" fill="#609f49"></path><path d="M642.921412 869.50651c-7.710118 0-15.420235-2.94149-21.293177-8.824471-11.765961-11.765961-11.765961-30.830431 0-42.596392l216.355138-216.355137c11.755922-11.765961 30.830431-11.765961 42.596392 0 11.765961 11.765961 11.765961 30.830431 0 42.596392L664.214588 860.682039c-5.872941 5.88298-13.583059 8.824471-21.293176 8.824471z" fill="#609f49" p-id="10302"></path><path d="M859.276549 869.50651c-7.710118 0-15.420235-2.94149-21.293176-8.824471L621.628235 644.326902c-11.765961-11.765961-11.765961-30.830431 0-42.596392 11.755922-11.765961 30.830431-11.765961 42.596392 0L880.579765 818.095686c11.765961 11.765961 11.765961 30.830431 0 42.596392a30.064439 30.064439 0 0 1-21.303216 8.814432z" fill="#609f49" p-id="10303"></path></svg>