<?xml version="1.0" standalone="no"?><!DOCTYPE svg PUBLIC "-//W3C//DTD SVG 1.1//EN" "http://www.w3.org/Graphics/SVG/1.1/DTD/svg11.dtd"><svg t="1695602071348" class="icon" viewBox="0 0 1024 1024" version="1.1" xmlns="http://www.w3.org/2000/svg" p-id="9229" xmlns:xlink="http://www.w3.org/1999/xlink" width="32" height="32"><path d="M711.3665 748.4186l70.6351 68.3781-0.0209 0.0418c7.5442 7.3143 12.288 17.5334 12.288 28.9019 0 22.2563-18.0558 40.3122-40.3122 40.3122-10.9087 0-20.7726-4.3677-28.0242-11.4103l-0.0209 0.0209L100.9371 269.8971l0.0209-0.0209c-7.5442-7.3352-12.288-17.5543-12.288-28.9019 0-22.2563 18.0558-40.3122 40.3122-40.3122 10.9087 0 20.7726 4.3677 28.0451 11.4103l0.0209-0.0418 108.6067 105.0958c69.4021-32.7053 152.2416-55.9856 246.366-55.9856 292.4251 0 483.8296 232.4689 483.8296 262.0813C995.8713 546.7742 889.1873 682.2139 711.3665 748.4186zM501.9481 321.5987c-62.9447 0-119.0348 27.857-157.7796 71.4919l71.6173 69.3185c20.5427-24.9522 51.3045-41.1899 86.1623-41.1899 61.8998 0 112.0549 50.1551 112.0549 112.0549 0 33.5412-15.0465 63.279-38.3896 83.8008l71.6173 69.3185c40.6465-38.5358 66.3928-92.6616 66.3928-153.1193C713.6235 416.3709 618.8513 321.5987 501.9481 321.5987zM530.0767 784.4049c-6.0604 0.1881-11.8909 0.8777-18.0558 0.8777-310.063 0-487.8211-222.9394-483.8296-262.0813 0-13.5837 37.6163-67.5631 105.6183-123.0263L530.0767 784.4049z" fill="#609f49" p-id="9230"></path></svg>