<?xml version="1.0" standalone="no"?><!DOCTYPE svg PUBLIC "-//W3C//DTD SVG 1.1//EN" "http://www.w3.org/Graphics/SVG/1.1/DTD/svg11.dtd"><svg t="1695715095875" class="icon" viewBox="0 0 1024 1024" version="1.1" xmlns="http://www.w3.org/2000/svg" p-id="2931" width="16" height="16" xmlns:xlink="http://www.w3.org/1999/xlink"><path d="M 512 62 A 450 450 0 1 0 962 512 A 450 450 0 0 0 512 62 Z m 175.051 656.64 c -31.725 31.725 -149.895 1.66453 -266.714 -115.109 s -146.791 -235.034 -115.109 -266.714 c 27.4951 -27.4951 61.0201 -75.51 111.194 -13.0049 s 25.5599 80.01 -2.78996 108.405 c -19.8451 19.8001 21.5549 69.93 64.7995 113.175 s 93.4198 84.6 113.264 64.8449 c 28.35 -28.35 45.8549 -53.0549 108.315 -2.79003 s 14.5351 83.6999 -12.96 111.195 Z m 0 0" fill="#3d8901" p-id="2932"></path></svg>